# xmcd CD database file
#
# Track frame offsets:
#	150
#	21683
#	41206
#	58246
#	83490
#	104950
#	124928
#	141027
#	160430
#	184237
#	200030
#	217416
#	240037
#	254919
#	277751
#
# Disc length: 4291 seconds
#
# Revision: 2
# Processed by: cddbd v1.5.2PL0 Copyright (c) Steve Scherf et al.
# Submitted via: CDex 1,2,0,0
#
DISCID=f310c10f
DTITLE=Various Artist - Exquisite Jazz Collection 3
DYEAR=1900
DGENRE=Jazz
TTITLE0=What You Won't Do For Love - Bobby Caldwell
TTITLE1=The Only Thing I Would Wish For - Angela Bofill
TTITLE2=Rhythm of Love - Marlena Shaw
TTITLE3=You're The One - Ronnie Foster
TTITLE4=Summer Breezin' - George Duke
TTITLE5=Love's Holiday - Earth, Wind and Fire
TTITLE6=Roomful of Mirrors - Hiroshima
TTITLE7=I Can't Let Go - Lee Ritenour and Phil Perry
TTITLE8=Could It Be I'm Falling In Love - Jaki Graham
TTITLE9=Where Is The Love - Mica Paris
TTITLE10=Never Give Up - Tim Weisberg and Amy Holland
TTITLE11=Keep This Love Alive - Tom Scott and David Pack
TTITLE12=One Hello - Randy Crawford
TTITLE13=The Key To You David Benoit and David Pack
TTITLE14=Promises ('95 Live) LA LA (means I Love You) - Basia and Swing Out Sister
EXTD=
EXTT0=
EXTT1=
EXTT2=
EXTT3=
EXTT4=
EXTT5=
EXTT6=
EXTT7=
EXTT8=
EXTT9=
EXTT10=
EXTT11=
EXTT12=
EXTT13=
EXTT14=
PLAYORDER=
